<svg width="263" height="51" viewBox="0 0 263 51" fill="none" xmlns="http://www.w3.org/2000/svg">
<path d="M12.096 44.112H27.136V50H4.8V5.52H12.096V44.112ZM88.002 32.4L104.258 50H94.402L81.346 34.832V50H74.05V2.64H81.346V30.16L94.146 14.736H104.258L88.002 32.4ZM141.808 31.504C141.808 32.8267 141.722 34.0213 141.552 35.088H114.608C114.821 37.904 115.866 40.1653 117.744 41.872C119.621 43.5787 121.925 44.432 124.656 44.432C128.581 44.432 131.354 42.7893 132.976 39.504H140.847C139.781 42.7467 137.84 45.4133 135.024 47.504C132.25 49.552 128.794 50.576 124.656 50.576C121.285 50.576 118.256 49.8293 115.568 48.336C112.922 46.8 110.832 44.6667 109.296 41.936C107.802 39.1627 107.056 35.9627 107.056 32.336C107.056 28.7093 107.781 25.5307 109.232 22.8C110.725 20.0267 112.794 17.8933 115.44 16.4C118.128 14.9067 121.2 14.16 124.656 14.16C127.984 14.16 130.949 14.8853 133.552 16.336C136.154 17.7867 138.181 19.8347 139.632 22.48C141.082 25.0827 141.808 28.0907 141.808 31.504ZM134.192 29.2C134.149 26.512 133.189 24.3573 131.312 22.736C129.434 21.1147 127.109 20.304 124.336 20.304C121.818 20.304 119.664 21.1147 117.872 22.736C116.08 24.3147 115.013 26.4693 114.672 29.2H134.192ZM156.284 19.856C157.35 18.064 158.758 16.6773 160.508 15.696C162.3 14.672 164.412 14.16 166.844 14.16V21.712H164.988C162.129 21.712 159.953 22.4373 158.46 23.888C157.009 25.3387 156.284 27.856 156.284 31.44V50H148.988V14.736H156.284V19.856ZM177.262 10.064C175.939 10.064 174.83 9.616 173.934 8.72C173.038 7.824 172.59 6.71467 172.59 5.392C172.59 4.06933 173.038 2.96 173.934 2.064C174.83 1.168 175.939 0.719997 177.262 0.719997C178.542 0.719997 179.63 1.168 180.526 2.064C181.422 2.96 181.87 4.06933 181.87 5.392C181.87 6.71467 181.422 7.824 180.526 8.72C179.63 9.616 178.542 10.064 177.262 10.064ZM180.846 14.736V50H173.55V14.736H180.846ZM187.993 32.208C187.993 28.6667 188.718 25.5307 190.169 22.8C191.662 20.0693 193.668 17.9573 196.185 16.464C198.745 14.928 201.561 14.16 204.633 14.16C207.406 14.16 209.817 14.7147 211.865 15.824C213.956 16.8907 215.62 18.2347 216.857 19.856V14.736H224.217V50H216.857V44.752C215.62 46.416 213.934 47.8027 211.801 48.912C209.668 50.0213 207.236 50.576 204.505 50.576C201.476 50.576 198.702 49.808 196.185 48.272C193.668 46.6933 191.662 44.5173 190.169 41.744C188.718 38.928 187.993 35.7493 187.993 32.208ZM216.857 32.336C216.857 29.904 216.345 27.792 215.321 26C214.34 24.208 213.038 22.8427 211.417 21.904C209.796 20.9653 208.046 20.496 206.169 20.496C204.292 20.496 202.542 20.9653 200.921 21.904C199.3 22.8 197.977 24.144 196.953 25.936C195.972 27.6853 195.481 29.776 195.481 32.208C195.481 34.64 195.972 36.7733 196.953 38.608C197.977 40.4427 199.3 41.8507 200.921 42.832C202.585 43.7707 204.334 44.24 206.169 44.24C208.046 44.24 209.796 43.7707 211.417 42.832C213.038 41.8933 214.34 40.528 215.321 38.736C216.345 36.9013 216.857 34.768 216.857 32.336Z" fill="#1E1E1E"/>
<path d="M66.5713 24.7715C68.2436 28.8368 68.4547 33.3561 67.1685 37.5594C65.8823 41.7628 63.1784 45.3902 59.5175 47.8234C55.8567 50.2567 51.4654 51.3454 47.0919 50.9039C42.7184 50.4625 38.6332 48.5182 35.5325 45.4024C32.4317 42.2867 30.5073 38.1921 30.087 33.8165C29.6668 29.4409 30.7767 25.0549 33.2277 21.4059C35.6787 17.7569 39.3191 15.0707 43.5286 13.8048C47.7382 12.539 52.2564 12.7719 56.3135 14.464L54.1665 19.612C51.3004 18.4167 48.1086 18.2522 45.1349 19.1464C42.1611 20.0406 39.5894 21.9383 37.858 24.516C36.1265 27.0938 35.3424 30.1922 35.6393 33.2832C35.9362 36.3743 37.2957 39.2668 39.4861 41.4679C41.6766 43.669 44.5625 45.0425 47.652 45.3543C50.7416 45.6662 53.8438 44.8971 56.4299 43.1782C59.016 41.4592 60.9261 38.8967 61.8348 35.9274C62.7434 32.958 62.5943 29.7654 61.4129 26.8936L66.5713 24.7715Z" fill="#1E1E1E"/>
<circle cx="49" cy="32" r="8" fill="#CCC8AA"/>
</svg>
